{
  "asset": {
    "version": "2.0",
    "generator": "ingestion-test-generator"
  },
  "extensionsUsed": ["KHR_materials_pbrSpecularGlossiness"],
  "extensionsRequired": ["KHR_materials_pbrSpecularGlossiness"],
  "scene": 0,
  "scenes": [
    {
      "name": "PbrSpecularGlossinessTestScene",
      "nodes": [0]
    }
  ],
  "nodes": [
    {
      "name": "TestMesh",
      "mesh": 0
    }
  ],
  "meshes": [
    {
      "primitives": [
        {
          "attributes": { "POSITION": 0 },
          "material": 0
        }
      ]
    }
  ],
  "materials": [
    {
      "name": "SpecularGlossinessMaterial",
      "extensions": {
        "KHR_materials_pbrSpecularGlossiness": {
          "diffuseFactor": [1.0, 0.5, 0.2, 1.0],
          "specularFactor": [0.9, 0.9, 0.9],
          "glossinessFactor": 0.8
        }
      }
    }
  ],
  "accessors": [
    {
      "bufferView": 0,
      "componentType": 5126,
      "count": 3,
      "type": "VEC3",
      "max": [1.0, 1.0, 0.0],
      "min": [-1.0, -1.0, 0.0]
    }
  ],
  "bufferViews": [
    {
      "buffer": 0,
      "byteOffset": 0,
      "byteLength": 36
    }
  ],
  "buffers": [
    {
      "uri": "data:application/octet-stream;base64,",
      "byteLength": 36
    }
  ]
}
