{
  "asset": {
    "version": "2.0",
    "generator": "ingestion-test-generator"
  },
  "extensionsUsed": ["KHR_texture_transform"],
  "scene": 0,
  "scenes": [
    {
      "name": "TextureTransformTestScene",
      "nodes": [0]
    }
  ],
  "nodes": [
    {
      "name": "TexturedQuad",
      "mesh": 0
    }
  ],
  "meshes": [
    {
      "primitives": [
        {
          "attributes": { "POSITION": 0, "TEXCOORD_0": 1 },
          "material": 0
        }
      ]
    }
  ],
  "materials": [
    {
      "name": "TransformedTextureMaterial",
      "pbrMetallicRoughness": {
        "baseColorTexture": {
          "index": 0,
          "extensions": {
            "KHR_texture_transform": {
              "offset": [0.1, 0.2],
              "rotation": 0.785398,
              "scale": [2.0, 2.0],
              "texCoord": 0
            }
          }
        },
        "metallicFactor": 0.0,
        "roughnessFactor": 1.0
      }
    }
  ],
  "textures": [
    {
      "sampler": 0,
      "source": 0
    }
  ],
  "samplers": [
    {
      "magFilter": 9729,
      "minFilter": 9987,
      "wrapS": 10497,
      "wrapT": 10497
    }
  ],
  "images": [
    {
      "uri": "test-texture-checkerboard.png",
      "mimeType": "image/png"
    }
  ],
  "accessors": [
    {
      "bufferView": 0,
      "componentType": 5126,
      "count": 4,
      "type": "VEC3",
      "max": [1.0, 1.0, 0.0],
      "min": [-1.0, -1.0, 0.0]
    },
    {
      "bufferView": 1,
      "componentType": 5126,
      "count": 4,
      "type": "VEC2"
    }
  ],
  "bufferViews": [
    {
      "buffer": 0,
      "byteOffset": 0,
      "byteLength": 48
    },
    {
      "buffer": 0,
      "byteOffset": 48,
      "byteLength": 32
    }
  ],
  "buffers": [
    {
      "uri": "data:application/octet-stream;base64,",
      "byteLength": 80
    }
  ]
}
